<mxfile host="app.diagrams.net" modified="2023-06-14T11:06:30.556Z" agent="Mozilla/5.0 (Windows NT 10.0; Win64; x64; rv:109.0) Gecko/20100101 Firefox/114.0" version="21.3.8" etag="-iM0VCNZQn6yL_YFMSa_" type="github">
  <diagram name="Page-1" id="i5m0HkeJGkGnqH5BKmAl">
    <mxGraphModel>
      <root>
        <mxCell id="0" />
        <mxCell id="1" parent="0" />
      </root>
    </mxGraphModel>
  </diagram>
</mxfile>
